<svg xmlns="http://www.w3.org/2000/svg" viewBox="0 0 800 400">
  <!-- Chart background -->
  <rect x="0" y="0" width="800" height="400" fill="white" />
  
  <!-- Grid lines -->
  <line x1="50" y1="50" x2="750" y2="50" stroke="#DFE6E9" stroke-width="1" />
  <line x1="50" y1="100" x2="750" y2="100" stroke="#DFE6E9" stroke-width="1" />
  <line x1="50" y1="150" x2="750" y2="150" stroke="#DFE6E9" stroke-width="1" />
  <line x1="50" y1="200" x2="750" y2="200" stroke="#DFE6E9" stroke-width="1" />
  <line x1="50" y1="250" x2="750" y2="250" stroke="#DFE6E9" stroke-width="1" />
  <line x1="50" y1="300" x2="750" y2="300" stroke="#DFE6E9" stroke-width="1" />
  <line x1="50" y1="350" x2="750" y2="350" stroke="#DFE6E9" stroke-width="1" />
  
  <line x1="50" y1="50" x2="50" y2="350" stroke="#DFE6E9" stroke-width="1" />
  <line x1="150" y1="50" x2="150" y2="350" stroke="#DFE6E9" stroke-width="1" />
  <line x1="250" y1="50" x2="250" y2="350" stroke="#DFE6E9" stroke-width="1" />
  <line x1="350" y1="50" x2="350" y2="350" stroke="#DFE6E9" stroke-width="1" />
  <line x1="450" y1="50" x2="450" y2="350" stroke="#DFE6E9" stroke-width="1" />
  <line x1="550" y1="50" x2="550" y2="350" stroke="#DFE6E9" stroke-width="1" />
  <line x1="650" y1="50" x2="650" y2="350" stroke="#DFE6E9" stroke-width="1" />
  <line x1="750" y1="50" x2="750" y2="350" stroke="#DFE6E9" stroke-width="1" />
  
  <!-- X-axis labels -->
  <text x="50" y="370" font-family="Arial" font-size="12" text-anchor="middle" fill="#636E72">Jan</text>
  <text x="150" y="370" font-family="Arial" font-size="12" text-anchor="middle" fill="#636E72">Feb</text>
  <text x="250" y="370" font-family="Arial" font-size="12" text-anchor="middle" fill="#636E72">Mar</text>
  <text x="350" y="370" font-family="Arial" font-size="12" text-anchor="middle" fill="#636E72">Apr</text>
  <text x="450" y="370" font-family="Arial" font-size="12" text-anchor="middle" fill="#636E72">May</text>
  <text x="550" y="370" font-family="Arial" font-size="12" text-anchor="middle" fill="#636E72">Jun</text>
  <text x="650" y="370" font-family="Arial" font-size="12" text-anchor="middle" fill="#636E72">Jul</text>
  <text x="750" y="370" font-family="Arial" font-size="12" text-anchor="middle" fill="#636E72">Aug</text>
  
  <!-- Y-axis labels -->
  <text x="40" y="350" font-family="Arial" font-size="12" text-anchor="end" fill="#636E72">$30,000</text>
  <text x="40" y="300" font-family="Arial" font-size="12" text-anchor="end" fill="#636E72">$35,000</text>
  <text x="40" y="250" font-family="Arial" font-size="12" text-anchor="end" fill="#636E72">$40,000</text>
  <text x="40" y="200" font-family="Arial" font-size="12" text-anchor="end" fill="#636E72">$45,000</text>
  <text x="40" y="150" font-family="Arial" font-size="12" text-anchor="end" fill="#636E72">$50,000</text>
  <text x="40" y="100" font-family="Arial" font-size="12" text-anchor="end" fill="#636E72">$55,000</text>
  <text x="40" y="50" font-family="Arial" font-size="12" text-anchor="end" fill="#636E72">$60,000</text>
  
  <!-- Area chart -->
  <path d="M50,280 L150,300 L250,320 L350,250 L450,200 L550,150 L650,170 L750,120 L750,350 L50,350 Z" fill="rgba(9, 132, 227, 0.1)" />
  
  <!-- Line chart -->
  <path d="M50,280 L150,300 L250,320 L350,250 L450,200 L550,150 L650,170 L750,120" stroke="#0984E3" stroke-width="3" fill="none" />
  
  <!-- Data points -->
  <circle cx="50" cy="280" r="5" fill="#0984E3" />
  <circle cx="150" cy="300" r="5" fill="#0984E3" />
  <circle cx="250" cy="320" r="5" fill="#0984E3" />
  <circle cx="350" cy="250" r="5" fill="#0984E3" />
  <circle cx="450" cy="200" r="5" fill="#0984E3" />
  <circle cx="550" cy="150" r="5" fill="#0984E3" />
  <circle cx="650" cy="170" r="5" fill="#0984E3" />
  <circle cx="750" cy="120" r="5" fill="#0984E3" />
  
  <!-- Volume bars -->
  <rect x="45" y="330" width="10" height="20" fill="rgba(9, 132, 227, 0.3)" />
  <rect x="145" y="325" width="10" height="25" fill="rgba(9, 132, 227, 0.3)" />
  <rect x="245" y="320" width="10" height="30" fill="rgba(9, 132, 227, 0.3)" />
  <rect x="345" y="315" width="10" height="35" fill="rgba(9, 132, 227, 0.3)" />
  <rect x="445" y="310" width="10" height="40" fill="rgba(9, 132, 227, 0.3)" />
  <rect x="545" y="305" width="10" height="45" fill="rgba(9, 132, 227, 0.3)" />
  <rect x="645" y="312" width="10" height="38" fill="rgba(9, 132, 227, 0.3)" />
  <rect x="745" y="300" width="10" height="50" fill="rgba(9, 132, 227, 0.3)" />
  
  <!-- Current price indicator -->
  <line x1="50" y1="120" x2="750" y2="120" stroke="#00B894" stroke-width="1" stroke-dasharray="5,5" />
  <rect x="750" y="110" width="50" height="20" fill="#00B894" />
  <text x="775" y="125" font-family="Arial" font-size="12" text-anchor="middle" fill="white">$42,850</text>
</svg>
