<svg xmlns="http://www.w3.org/2000/svg" viewBox="0 0 100 100">
  <circle cx="50" cy="50" r="45" fill="rgba(9, 132, 227, 0.1)" />
  <circle cx="50" cy="50" r="35" fill="white" stroke="#0984E3" stroke-width="2" />
  
  <!-- Dollar sign -->
  <path d="M50 25 L50 75" stroke="#0984E3" stroke-width="4" stroke-linecap="round" />
  <path d="M40 35 C40 30 45 25 50 25 C55 25 60 30 60 35 C60 40 55 45 50 45 C45 45 40 50 40 55 C40 60 45 65 50 65 C55 65 60 60 60 55" stroke="#0984E3" stroke-width="4" fill="none" stroke-linecap="round" />
  
  <!-- Percentage symbol -->
  <circle cx="30" cy="35" r="5" fill="#00B894" />
  <circle cx="70" cy="65" r="5" fill="#00B894" />
  <line x1="25" y1="70" x2="75" y2="30" stroke="#00B894" stroke-width="2" stroke-linecap="round" />
  
  <!-- Decorative elements -->
  <path d="M20 50 L30 50" stroke="#00B894" stroke-width="2" stroke-linecap="round" />
  <path d="M70 50 L80 50" stroke="#00B894" stroke-width="2" stroke-linecap="round" />
  <path d="M50 20 L50 30" stroke="#00B894" stroke-width="2" stroke-linecap="round" />
  <path d="M50 70 L50 80" stroke="#00B894" stroke-width="2" stroke-linecap="round" />
</svg>
