<svg xmlns="http://www.w3.org/2000/svg" viewBox="0 0 200 50">
  <path d="M20 10C13.383 10 8 15.383 8 22C8 28.617 13.383 34 20 34C26.617 34 32 28.617 32 22C32 15.383 26.617 10 20 10ZM20 30C15.589 30 12 26.411 12 22C12 17.589 15.589 14 20 14C24.411 14 28 17.589 28 22C28 26.411 24.411 30 20 30Z" fill="#0984E3"/>
  <path d="M20 18C18.346 18 17 19.346 17 21C17 22.654 18.346 24 20 24C21.654 24 23 22.654 23 21C23 19.346 21.654 18 20 18Z" fill="#00B894"/>
  <path d="M45 19H42V29H38V19H35V16H38V13C38 11.667 38.375 10.667 39.125 10C39.875 9.33333 40.9167 9 42.25 9H45V12H43C42.4444 12 42.0556 12.125 41.8333 12.375C41.6111 12.6183 41.5 13 41.5 13.5V16H45V19Z" fill="#2D3436"/>
  <path d="M48 12.5C48 11.6572 48.6572 11 49.5 11C50.3428 11 51 11.6572 51 12.5C51 13.3428 50.3428 14 49.5 14C48.6572 14 48 13.3428 48 12.5ZM48 16H51V29H48V16Z" fill="#2D3436"/>
  <path d="M63 16H66V29H63V27.5C62.4706 28.1667 61.8366 28.6667 61.098 29C60.3595 29.3333 59.5709 29.5 58.7324 29.5C57.5596 29.5 56.5144 29.2367 55.5967 28.71C54.679 28.1833 53.9576 27.425 53.4325 26.435C52.9075 25.445 52.645 24.31 52.645 23.03C52.645 21.75 52.9075 20.615 53.4325 19.625C53.9576 18.635 54.679 17.8767 55.5967 17.35C56.5144 16.8233 57.5596 16.56 58.7324 16.56C59.5709 16.56 60.3595 16.7267 61.098 17.06C61.8366 17.3933 62.4706 17.8933 63 18.56V16ZM59.287 26.79C60.2701 26.79 61.0756 26.4633 61.7034 25.81C62.3311 25.1567 62.645 24.23 62.645 23.03C62.645 21.83 62.3311 20.9033 61.7034 20.25C61.0756 19.5967 60.2701 19.27 59.287 19.27C58.304 19.27 57.4985 19.5967 56.8707 20.25C56.243 20.9033 55.9291 21.83 55.9291 23.03C55.9291 24.23 56.243 25.1567 56.8707 25.81C57.4985 26.4633 58.304 26.79 59.287 26.79Z" fill="#2D3436"/>
  <path d="M79 16H82.5L77.5 29H74L69 16H72.5L75.75 25.5L79 16Z" fill="#2D3436"/>
  <path d="M83 23.03C83 21.75 83.2774 20.615 83.8322 19.625C84.3871 18.635 85.1384 17.8767 86.0864 17.35C87.0344 16.8233 88.1176 16.56 89.336 16.56C90.4144 16.56 91.3475 16.7467 92.1353 17.12C92.9232 17.4933 93.5409 17.9933 93.9883 18.62V16.5H97V29H93.9883V26.88C93.5361 27.5067 92.9136 28.0067 92.1209 28.38C91.3282 28.7533 90.3951 28.94 89.3217 28.94C88.1129 28.94 87.0344 28.6767 86.0864 28.15C85.1384 27.6233 84.3871 26.8617 83.8322 25.865C83.2774 24.8683 83 23.7367 83 22.47V23.03ZM93.0883 23.03C93.0883 21.83 92.7662 20.9033 92.1209 20.25C91.4756 19.5967 90.6494 19.27 89.6431 19.27C88.6369 19.27 87.8107 19.5967 87.1654 20.25C86.5201 20.9033 86.1975 21.83 86.1975 23.03C86.1975 24.23 86.5201 25.1567 87.1654 25.81C87.8107 26.4633 88.6369 26.79 89.6431 26.79C90.6494 26.79 91.4756 26.4633 92.1209 25.81C92.7662 25.1567 93.0883 24.23 93.0883 23.03Z" fill="#2D3436"/>
  <path d="M105 16H108V29H105V16ZM105 12.5C105 11.6572 105.657 11 106.5 11C107.343 11 108 11.6572 108 12.5C108 13.3428 107.343 14 106.5 14C105.657 14 105 13.3428 105 12.5Z" fill="#2D3436"/>
  <path d="M119 16H123V29H120V27.5C119.489 28.1667 118.864 28.6667 118.125 29C117.386 29.3333 116.576 29.5 115.694 29.5C114.471 29.5 113.402 29.2367 112.488 28.71C111.573 28.1833 110.861 27.425 110.352 26.435C109.843 25.445 109.589 24.31 109.589 23.03C109.589 21.75 109.843 20.615 110.352 19.625C110.861 18.635 111.573 17.8767 112.488 17.35C113.402 16.8233 114.471 16.56 115.694 16.56C116.576 16.56 117.386 16.7267 118.125 17.06C118.864 17.3933 119.489 17.8933 120 18.56V16ZM116.155 26.79C117.092 26.79 117.864 26.4633 118.471 25.81C119.079 25.1567 119.382 24.23 119.382 23.03C119.382 21.83 119.079 20.9033 118.471 20.25C117.864 19.5967 117.092 19.27 116.155 19.27C115.218 19.27 114.446 19.5967 113.839 20.25C113.231 20.9033 112.927 21.83 112.927 23.03C112.927 24.23 113.231 25.1567 113.839 25.81C114.446 26.4633 115.218 26.79 116.155 26.79Z" fill="#2D3436"/>
  <path d="M133 16H136V19H133V29H130V19H127V16H130V15C130 13.6667 130.417 12.5833 131.25 11.75C132.083 10.9167 133.25 10.5 134.75 10.5C135.195 10.5 135.585 10.53 135.921 10.59C136.257 10.65 136.568 10.74 136.855 10.86L136.25 13.74C136.045 13.66 135.827 13.5967 135.596 13.55C135.365 13.5033 135.12 13.48 134.86 13.48C134.28 13.48 133.833 13.6367 133.52 13.95C133.207 14.2633 133.06 14.72 133.07 15.32L133 16Z" fill="#2D3436"/>
  <text x="145" y="29" font-family="Lato, sans-serif" font-size="15" font-weight="700" fill="#2D3436">Exchange</text>
</svg>
