<svg xmlns="http://www.w3.org/2000/svg" viewBox="0 0 400 400">
  <circle cx="200" cy="200" r="180" fill="rgba(9, 132, 227, 0.1)" />
  
  <!-- Document with checkmarks -->
  <rect x="120" y="70" width="160" height="220" rx="5" fill="white" stroke="#0984E3" stroke-width="2" />
  <rect x="120" y="70" width="160" height="30" rx="5" fill="#0984E3" />
  <text x="200" y="90" font-family="Arial" font-size="12" text-anchor="middle" fill="white">SIGN UP</text>
  
  <line x1="140" y1="120" x2="260" y2="120" stroke="#DFE6E9" stroke-width="1" />
  <line x1="140" y1="150" x2="260" y2="150" stroke="#DFE6E9" stroke-width="1" />
  <line x1="140" y1="180" x2="260" y2="180" stroke="#DFE6E9" stroke-width="1" />
  <line x1="140" y1="210" x2="260" y2="210" stroke="#DFE6E9" stroke-width="1" />
  <line x1="140" y1="240" x2="260" y2="240" stroke="#DFE6E9" stroke-width="1" />
  
  <text x="160" y="140" font-family="Arial" font-size="10" fill="#636E72">Full Name</text>
  <text x="160" y="170" font-family="Arial" font-size="10" fill="#636E72">Email Address</text>
  <text x="160" y="200" font-family="Arial" font-size="10" fill="#636E72">Create Password</text>
  <text x="160" y="230" font-family="Arial" font-size="10" fill="#636E72">Confirm Password</text>
  
  <circle cx="135" cy="135" r="8" fill="#00B894" />
  <path d="M130 135 L134 139 L140 131" stroke="white" stroke-width="2" fill="none" />
  
  <circle cx="135" cy="165" r="8" fill="#00B894" />
  <path d="M130 165 L134 169 L140 161" stroke="white" stroke-width="2" fill="none" />
  
  <circle cx="135" cy="195" r="8" fill="#DFE6E9" />
  <path d="M130 195 L134 199 L140 191" stroke="white" stroke-width="2" fill="none" />
  
  <circle cx="135" cy="225" r="8" fill="#DFE6E9" />
  <path d="M130 225 L134 229 L140 221" stroke="white" stroke-width="2" fill="none" />
  
  <!-- Pen icon -->
  <path d="M280 140 L290 130 L300 140 L290 150 Z" fill="#0984E3" />
  <line x1="290" y1="150" x2="290" y2="170" stroke="#0984E3" stroke-width="2" />
  
  <!-- Submit button -->
  <rect x="140" y="250" width="120" height="25" rx="12.5" fill="#00B894" />
  <text x="200" y="267" font-family="Arial" font-size="12" text-anchor="middle" fill="white">CREATE ACCOUNT</text>
  
  <!-- Blockchain elements -->
  <circle cx="90" cy="120" r="20" fill="#0984E3" opacity="0.5" />
  <text x="90" y="125" font-family="Arial" font-size="16" text-anchor="middle" fill="white">₿</text>
  
  <circle cx="320" cy="120" r="20" fill="#0984E3" opacity="0.5" />
  <text x="320" y="125" font-family="Arial" font-size="16" text-anchor="middle" fill="white">Ξ</text>
  
  <circle cx="90" cy="280" r="20" fill="#00B894" opacity="0.5" />
  <path d="M80 280 L90 290 L100 270" stroke="white" stroke-width="2" fill="none" />
  
  <circle cx="320" cy="280" r="20" fill="#00B894" opacity="0.5" />
  <text x="320" y="285" font-family="Arial" font-size="16" text-anchor="middle" fill="white">$</text>
  
  <!-- Security shield -->
  <path d="M200 320 L170 300 L170 340 L200 360 L230 340 L230 300 Z" fill="#0984E3" opacity="0.3" />
  <path d="M200 330 L185 320 L185 340 L200 350 L215 340 L215 320 Z" fill="#0984E3" opacity="0.7" />
  <path d="M195 335 L200 340 L210 327" stroke="white" stroke-width="2" fill="none" />
</svg>